# Blender v2.83.0 OBJ File: 'GroundplaneAttempt3.blend'
# www.blender.org
mtllib FarmLand.mtl
o Plane.224_Plane.478
v 20.861534 0.666629 19.910320
v 20.908924 0.682362 19.910320
v 20.956310 0.698173 19.910320
v 21.003696 0.705374 19.910320
v 21.051086 0.698173 19.910320
v 21.098473 0.682362 19.910320
v 21.145859 0.666629 19.910320
v 21.248878 0.666629 19.910320
v 21.296268 0.682362 19.910320
v 21.343655 0.698173 19.910320
v 21.391041 0.705374 19.910320
v 21.438431 0.698173 19.910320
v 21.485817 0.682362 19.910320
v 21.533203 0.666629 19.910320
v 21.636223 0.666629 19.910320
v 21.920547 0.666629 19.910320
v 21.683613 0.682362 19.910320
v 21.730999 0.698173 19.910320
v 21.778385 0.705374 19.910320
v 21.825775 0.698173 19.910320
v 21.873161 0.682362 19.910320
v 22.023567 0.666629 19.910320
v 22.307894 0.666629 19.910320
v 22.070957 0.682362 19.910320
v 22.118343 0.698173 19.910320
v 22.165730 0.705374 19.910320
v 22.213120 0.698173 19.910320
v 22.260506 0.682362 19.910320
v 22.410912 0.666629 19.910320
v 22.695236 0.666629 19.910320
v 22.458300 0.682362 19.910320
v 22.505688 0.698173 19.910320
v 22.553076 0.705374 19.910320
v 22.600464 0.698173 19.910320
v 22.647850 0.682362 19.910320
v 22.798256 0.666629 19.910320
v 23.082581 0.666629 19.910320
v 22.845644 0.682362 19.910320
v 22.893032 0.698173 19.910320
v 22.940420 0.705374 19.910320
v 22.987808 0.698173 19.910320
v 23.035194 0.682362 19.910320
v 23.185600 0.666629 19.910320
v 23.232988 0.682362 19.910320
v 23.280376 0.698173 19.910320
v 23.327765 0.705374 19.910320
v 23.375153 0.698173 19.910320
v 23.422541 0.682362 19.910320
v 23.469925 0.666629 19.910320
v 23.572945 0.666629 19.910320
v 23.857271 0.666629 19.910320
v 23.620335 0.682362 19.910320
v 23.667721 0.698173 19.910320
v 23.715109 0.705374 19.910320
v 23.762497 0.698173 19.910320
v 23.809883 0.682362 19.910320
v 23.960289 0.666629 19.910320
v 20.861534 0.666630 15.658903
v 21.145859 0.666629 15.658903
v 21.098473 0.682363 15.658903
v 21.051085 0.698173 15.658903
v 21.003696 0.705374 15.658903
v 20.956308 0.698173 15.658903
v 20.908920 0.682363 15.658903
v 21.248878 0.666630 15.658903
v 21.485817 0.682363 15.658903
v 21.438429 0.698173 15.658903
v 21.391041 0.705374 15.658903
v 21.343655 0.698173 15.658903
v 21.296265 0.682363 15.658903
v 21.533203 0.666629 15.658903
v 21.636223 0.666630 15.658903
v 21.920547 0.666629 15.658903
v 21.873161 0.682363 15.658903
v 21.825773 0.698173 15.658903
v 21.778385 0.705374 15.658903
v 21.730997 0.698173 15.658903
v 21.683609 0.682363 15.658903
v 22.023567 0.666630 15.658903
v 22.307894 0.666629 15.658903
v 22.260506 0.682363 15.658903
v 22.213118 0.698173 15.658903
v 22.165730 0.705374 15.658903
v 22.118343 0.698173 15.658903
v 22.070953 0.682363 15.658903
v 22.410912 0.666630 15.658903
v 22.695236 0.666629 15.658903
v 22.647848 0.682363 15.658903
v 22.600462 0.698173 15.658903
v 22.553074 0.705374 15.658903
v 22.505688 0.698173 15.658903
v 22.458298 0.682363 15.658903
v 22.798256 0.666630 15.658903
v 23.082581 0.666629 15.658903
v 23.035194 0.682363 15.658903
v 22.987804 0.698173 15.658903
v 22.940418 0.705374 15.658903
v 22.893032 0.698173 15.658903
v 22.845642 0.682363 15.658903
v 23.185600 0.666630 15.658903
v 23.422539 0.682363 15.658903
v 23.375149 0.698173 15.658903
v 23.327763 0.705374 15.658903
v 23.280376 0.698173 15.658903
v 23.232986 0.682363 15.658903
v 23.469925 0.666629 15.658903
v 23.572945 0.666630 15.658903
v 23.857269 0.666629 15.658903
v 23.809881 0.682363 15.658903
v 23.762493 0.698173 15.658903
v 23.715107 0.705374 15.658903
v 23.667721 0.698173 15.658903
v 23.620331 0.682363 15.658903
v 23.960289 0.666630 15.658903
vt 0.949156 0.000299
vt 0.966071 0.000404
vt 0.966071 0.969567
vt 0.949156 0.969462
vt 0.982986 0.000323
vt 0.982986 0.969486
vt 0.858011 0.969423
vt 0.858012 0.000260
vt 0.874928 0.000179
vt 0.874926 0.969342
vt 0.733034 0.969918
vt 0.733037 0.000755
vt 0.749952 0.000674
vt 0.749950 0.969837
vt 0.915327 0.000098
vt 0.932242 0.000195
vt 0.932241 0.969358
vt 0.915326 0.969262
vt 0.523488 0.000574
vt 0.540403 0.000670
vt 0.540399 0.969833
vt 0.523484 0.969737
vt 0.790350 0.969756
vt 0.790351 0.000593
vt 0.807266 0.000513
vt 0.807265 0.969676
vt 0.773434 0.969837
vt 0.773436 0.000674
vt 0.716119 0.969998
vt 0.716121 0.000836
vt 0.841096 0.969504
vt 0.841097 0.000341
vt 0.824180 0.969590
vt 0.824181 0.000427
vt 0.665377 0.000720
vt 0.682291 0.000817
vt 0.682289 0.969980
vt 0.665374 0.969883
vt 0.648459 0.969964
vt 0.648461 0.000801
vt 0.608059 0.970045
vt 0.608063 0.000882
vt 0.624978 0.000801
vt 0.624974 0.969964
vt 0.557318 0.000767
vt 0.574232 0.000871
vt 0.574229 0.970034
vt 0.557314 0.969930
vt 0.699207 0.000731
vt 0.699204 0.969894
vt 0.466169 0.969898
vt 0.466174 0.000735
vt 0.483089 0.000654
vt 0.483084 0.969817
vt 0.898411 0.000179
vt 0.898411 0.969342
vt 0.591148 0.000785
vt 0.591144 0.969948
vt 0.074337 0.000478
vt 0.091252 0.000582
vt 0.091244 0.969746
vt 0.074329 0.969641
vt 0.500000 0.969737
vt 0.500005 0.000573
vt 0.415429 0.000620
vt 0.432344 0.000716
vt 0.432339 0.969879
vt 0.415424 0.969783
vt 0.398509 0.969863
vt 0.398513 0.000700
vt 0.290448 0.970086
vt 0.290454 0.000923
vt 0.307369 0.000843
vt 0.307363 0.970006
vt 0.358109 0.969944
vt 0.358115 0.000781
vt 0.375030 0.000700
vt 0.375024 0.969863
vt 0.449259 0.000630
vt 0.449254 0.969793
vt 0.324285 0.000757
vt 0.324279 0.969920
vt 0.273539 0.000827
vt 0.273533 0.969990
vt 0.108158 0.969842
vt 0.108167 0.000679
vt 0.125082 0.000598
vt 0.125074 0.969761
vt 0.233141 0.000730
vt 0.250056 0.000826
vt 0.250048 0.969990
vt 0.233134 0.969893
vt 0.341199 0.000861
vt 0.341193 0.970025
vt 0.165480 0.000695
vt 0.182395 0.000792
vt 0.182388 0.969955
vt 0.165473 0.969858
vt 0.148566 0.000598
vt 0.148558 0.969762
vt 0.023583 0.969711
vt 0.023591 0.000547
vt 0.040507 0.000467
vt 0.040499 0.969630
vt 0.216218 0.969973
vt 0.216225 0.000810
vt 0.199311 0.000706
vt 0.199303 0.969869
vt 0.057422 0.000563
vt 0.057414 0.969727
vt 0.000098 0.969711
vt 0.000108 0.000547
vt 0.999901 0.000242
vt 0.999901 0.969405
vn -0.0000 1.0000 0.0000
vn -0.2342 0.9722 0.0000
vn -0.3158 0.9488 0.0000
vn -0.1596 0.9872 0.0000
vn 0.3158 0.9488 0.0000
vn 0.2342 0.9722 0.0000
vn 0.1596 0.9872 0.0000
vn -0.3151 0.9491 0.0000
usemtl None
s 1
f 62/1/1 63/2/2 3/3/2 4/4/1
f 3/3/2 63/2/2 64/5/3 2/6/3
f 9/7/3 70/8/3 65/9/4 8/10/4
f 17/11/3 78/12/3 72/13/4 15/14/4
f 60/15/5 61/16/6 5/17/6 6/18/5
f 80/19/7 81/20/5 28/21/5 23/22/7
f 13/23/5 66/24/5 67/25/6 12/26/6
f 14/27/7 71/28/7 66/24/5 13/23/5
f 18/29/2 77/30/2 78/12/3 17/11/3
f 10/31/2 69/32/2 70/8/3 9/7/3
f 11/33/1 68/34/1 69/32/2 10/31/2
f 12/26/6 67/25/6 68/34/1 11/33/1
f 74/35/5 75/36/6 20/37/6 21/38/5
f 16/39/7 73/40/7 74/35/5 21/38/5
f 24/41/3 85/42/3 79/43/4 22/44/4
f 82/45/6 83/46/1 26/47/1 27/48/6
f 76/49/1 77/30/2 18/29/2 19/50/1
f 20/37/6 75/36/6 76/49/1 19/50/1
f 81/20/5 82/45/6 27/48/6 28/21/5
f 32/51/2 91/52/2 92/53/3 31/54/3
f 59/55/7 7/56/7 8/10/4 65/9/4
f 84/57/2 85/42/3 24/41/3 25/58/2
f 26/47/1 83/46/1 84/57/2 25/58/2
f 111/59/1 112/60/2 53/61/2 54/62/1
f 71/28/7 14/27/7 15/14/4 72/13/4
f 73/40/7 16/39/7 22/44/4 79/43/4
f 80/19/7 23/22/7 29/63/4 86/64/4
f 31/54/3 92/53/3 86/64/4 29/63/4
f 88/65/5 89/66/6 34/67/6 35/68/5
f 30/69/7 87/70/7 88/65/5 35/68/5
f 42/71/5 95/72/5 96/73/6 41/74/6
f 38/75/3 99/76/3 93/77/4 36/78/4
f 90/79/1 91/52/2 32/51/2 33/80/1
f 34/67/6 89/66/6 90/79/1 33/80/1
f 41/74/6 96/73/6 97/81/1 40/82/1
f 94/83/7 95/72/5 42/71/5 37/84/7
f 52/85/3 113/86/3 107/87/4 50/88/4
f 105/89/3 100/90/4 43/91/4 44/92/3
f 97/81/1 98/93/2 39/94/2 40/82/1
f 39/94/2 98/93/2 99/76/3 38/75/3
f 101/95/5 102/96/6 47/97/6 48/98/5
f 106/99/7 101/95/5 48/98/5 49/100/7
f 51/101/7 108/102/7 109/103/5 56/104/5
f 45/105/2 104/106/2 105/89/3 44/92/3
f 103/107/1 104/106/2 45/105/2 46/108/1
f 47/97/6 102/96/6 103/107/1 46/108/1
f 109/103/5 110/109/6 55/110/6 56/104/5
f 61/16/6 62/1/1 4/4/1 5/17/6
f 87/70/7 30/69/7 36/78/4 93/77/4
f 108/102/7 51/101/7 57/111/1 114/112/1
f 112/60/2 113/86/3 52/85/3 53/61/2
f 55/110/6 110/109/6 111/59/1 54/62/1
f 94/83/7 37/84/7 43/91/4 100/90/4
f 106/99/7 49/100/7 50/88/4 107/87/4
f 7/56/7 59/55/7 60/15/5 6/18/5
f 2/6/3 64/5/3 58/113/8 1/114/8
o Plane.225_Plane.479
v 20.861538 0.666629 24.161734
v 20.908924 0.682362 24.161734
v 20.956312 0.698173 24.161734
v 21.003700 0.705373 24.161734
v 21.051086 0.698172 24.161734
v 21.098476 0.682362 24.161734
v 21.145863 0.666629 24.161734
v 21.248882 0.666629 24.161734
v 21.296268 0.682362 24.161734
v 21.343658 0.698173 24.161734
v 21.391045 0.705373 24.161734
v 21.438431 0.698172 24.161734
v 21.485821 0.682362 24.161734
v 21.533207 0.666629 24.161734
v 21.636227 0.666629 24.161734
v 21.920551 0.666629 24.161734
v 21.683613 0.682362 24.161734
v 21.731001 0.698173 24.161734
v 21.778389 0.705373 24.161734
v 21.825775 0.698172 24.161734
v 21.873165 0.682362 24.161734
v 22.023569 0.666629 24.161734
v 22.307896 0.666629 24.161734
v 22.070957 0.682362 24.161734
v 22.118345 0.698173 24.161734
v 22.165733 0.705373 24.161734
v 22.213120 0.698172 24.161734
v 22.260508 0.682362 24.161734
v 22.410913 0.666629 24.161734
v 22.695240 0.666629 24.161734
v 22.458302 0.682362 24.161734
v 22.505690 0.698173 24.161734
v 22.553078 0.705373 24.161734
v 22.600464 0.698172 24.161734
v 22.647854 0.682362 24.161734
v 22.798260 0.666629 24.161734
v 23.082584 0.666629 24.161734
v 22.845646 0.682362 24.161734
v 22.893034 0.698173 24.161734
v 22.940422 0.705373 24.161734
v 22.987810 0.698172 24.161734
v 23.035198 0.682362 24.161734
v 23.185604 0.666629 24.161734
v 23.232990 0.682362 24.161734
v 23.280378 0.698173 24.161734
v 23.327766 0.705373 24.161734
v 23.375154 0.698172 24.161734
v 23.422543 0.682362 24.161734
v 23.469929 0.666629 24.161734
v 23.572948 0.666629 24.161734
v 23.857273 0.666629 24.161734
v 23.620335 0.682362 24.161734
v 23.667723 0.698173 24.161734
v 23.715111 0.705373 24.161734
v 23.762499 0.698172 24.161734
v 23.809885 0.682362 24.161734
v 23.960291 0.666629 24.161734
v 20.861538 0.666629 19.910318
v 21.145863 0.666629 19.910318
v 21.098473 0.682362 19.910318
v 21.051086 0.698173 19.910318
v 21.003698 0.705373 19.910318
v 20.956310 0.698173 19.910318
v 20.908922 0.682362 19.910318
v 21.248882 0.666629 19.910318
v 21.485819 0.682362 19.910318
v 21.438431 0.698173 19.910318
v 21.391043 0.705373 19.910318
v 21.343658 0.698173 19.910318
v 21.296267 0.682362 19.910318
v 21.533207 0.666629 19.910318
v 21.636227 0.666629 19.910318
v 21.920551 0.666629 19.910318
v 21.873163 0.682362 19.910318
v 21.825775 0.698173 19.910318
v 21.778387 0.705373 19.910318
v 21.730999 0.698173 19.910318
v 21.683613 0.682362 19.910318
v 22.023567 0.666629 19.910318
v 22.307896 0.666629 19.910318
v 22.260508 0.682362 19.910318
v 22.213120 0.698173 19.910318
v 22.165731 0.705373 19.910318
v 22.118343 0.698173 19.910318
v 22.070957 0.682362 19.910318
v 22.410912 0.666629 19.910318
v 22.695236 0.666629 19.910318
v 22.647850 0.682362 19.910318
v 22.600464 0.698173 19.910318
v 22.553076 0.705373 19.910318
v 22.505688 0.698173 19.910318
v 22.458302 0.682362 19.910318
v 22.798256 0.666629 19.910318
v 23.082582 0.666629 19.910318
v 23.035196 0.682362 19.910318
v 22.987806 0.698173 19.910318
v 22.940422 0.705373 19.910318
v 22.893032 0.698173 19.910318
v 22.845646 0.682362 19.910318
v 23.185602 0.666629 19.910318
v 23.422541 0.682362 19.910318
v 23.375151 0.698173 19.910318
v 23.327766 0.705373 19.910318
v 23.280376 0.698173 19.910318
v 23.232990 0.682362 19.910318
v 23.469927 0.666629 19.910318
v 23.572947 0.666629 19.910318
v 23.857271 0.666629 19.910318
v 23.809883 0.682362 19.910318
v 23.762495 0.698173 19.910318
v 23.715111 0.705373 19.910318
v 23.667721 0.698173 19.910318
v 23.620335 0.682362 19.910318
v 23.960291 0.666629 19.910318
vt 0.949156 0.000299
vt 0.966071 0.000404
vt 0.966071 0.969567
vt 0.949156 0.969462
vt 0.982986 0.000323
vt 0.982986 0.969486
vt 0.858011 0.969423
vt 0.858012 0.000260
vt 0.874928 0.000179
vt 0.874926 0.969342
vt 0.733034 0.969918
vt 0.733037 0.000755
vt 0.749952 0.000674
vt 0.749950 0.969837
vt 0.915327 0.000098
vt 0.932242 0.000195
vt 0.932241 0.969358
vt 0.915326 0.969262
vt 0.523488 0.000574
vt 0.540403 0.000670
vt 0.540399 0.969833
vt 0.523484 0.969737
vt 0.790350 0.969756
vt 0.790351 0.000593
vt 0.807266 0.000513
vt 0.807265 0.969676
vt 0.773434 0.969837
vt 0.773436 0.000674
vt 0.716119 0.969998
vt 0.716121 0.000836
vt 0.841096 0.969504
vt 0.841097 0.000341
vt 0.824180 0.969590
vt 0.824181 0.000427
vt 0.665377 0.000720
vt 0.682291 0.000817
vt 0.682289 0.969980
vt 0.665374 0.969883
vt 0.648459 0.969964
vt 0.648461 0.000801
vt 0.608059 0.970045
vt 0.608063 0.000882
vt 0.624978 0.000801
vt 0.624974 0.969964
vt 0.557318 0.000767
vt 0.574232 0.000871
vt 0.574229 0.970034
vt 0.557314 0.969930
vt 0.699207 0.000731
vt 0.699204 0.969894
vt 0.466169 0.969898
vt 0.466174 0.000735
vt 0.483089 0.000654
vt 0.483084 0.969817
vt 0.898411 0.000179
vt 0.898411 0.969342
vt 0.591148 0.000785
vt 0.591144 0.969948
vt 0.074337 0.000478
vt 0.091252 0.000582
vt 0.091244 0.969746
vt 0.074329 0.969641
vt 0.500000 0.969737
vt 0.500005 0.000573
vt 0.415429 0.000620
vt 0.432344 0.000716
vt 0.432339 0.969879
vt 0.415424 0.969783
vt 0.398509 0.969863
vt 0.398513 0.000700
vt 0.290448 0.970086
vt 0.290454 0.000923
vt 0.307369 0.000843
vt 0.307363 0.970006
vt 0.358109 0.969944
vt 0.358115 0.000781
vt 0.375030 0.000700
vt 0.375024 0.969863
vt 0.449259 0.000630
vt 0.449254 0.969793
vt 0.324285 0.000757
vt 0.324279 0.969920
vt 0.273539 0.000827
vt 0.273533 0.969990
vt 0.108158 0.969842
vt 0.108167 0.000679
vt 0.125082 0.000598
vt 0.125074 0.969761
vt 0.233141 0.000730
vt 0.250056 0.000826
vt 0.250048 0.969990
vt 0.233134 0.969893
vt 0.341199 0.000861
vt 0.341193 0.970025
vt 0.165480 0.000695
vt 0.182395 0.000792
vt 0.182388 0.969955
vt 0.165473 0.969858
vt 0.148566 0.000598
vt 0.148558 0.969762
vt 0.023583 0.969711
vt 0.023591 0.000547
vt 0.040507 0.000467
vt 0.040499 0.969630
vt 0.216218 0.969973
vt 0.216225 0.000810
vt 0.199311 0.000706
vt 0.199303 0.969869
vt 0.057422 0.000563
vt 0.057414 0.969727
vt 0.000098 0.969711
vt 0.000108 0.000547
vt 0.999901 0.000242
vt 0.999901 0.969405
vn 0.0000 1.0000 0.0000
vn -0.2342 0.9722 0.0000
vn -0.3158 0.9488 0.0000
vn -0.1596 0.9872 0.0000
vn 0.3158 0.9488 -0.0000
vn 0.2342 0.9722 0.0000
vn 0.1596 0.9872 0.0000
vn -0.3151 0.9491 0.0000
usemtl None
s 1
f 176/115/9 177/116/10 117/117/10 118/118/9
f 117/117/10 177/116/10 178/119/11 116/120/11
f 123/121/11 184/122/11 179/123/12 122/124/12
f 131/125/11 192/126/11 186/127/12 129/128/12
f 174/129/13 175/130/14 119/131/14 120/132/13
f 194/133/15 195/134/13 142/135/13 137/136/15
f 127/137/13 180/138/13 181/139/14 126/140/14
f 128/141/15 185/142/15 180/138/13 127/137/13
f 132/143/10 191/144/10 192/126/11 131/125/11
f 124/145/10 183/146/10 184/122/11 123/121/11
f 125/147/9 182/148/9 183/146/10 124/145/10
f 126/140/14 181/139/14 182/148/9 125/147/9
f 188/149/13 189/150/14 134/151/14 135/152/13
f 130/153/15 187/154/15 188/149/13 135/152/13
f 138/155/11 199/156/11 193/157/12 136/158/12
f 196/159/14 197/160/9 140/161/9 141/162/14
f 190/163/9 191/144/10 132/143/10 133/164/9
f 134/151/14 189/150/14 190/163/9 133/164/9
f 195/134/13 196/159/14 141/162/14 142/135/13
f 146/165/10 205/166/10 206/167/11 145/168/11
f 173/169/15 121/170/15 122/124/12 179/123/12
f 198/171/10 199/156/11 138/155/11 139/172/10
f 140/161/9 197/160/9 198/171/10 139/172/10
f 225/173/9 226/174/10 167/175/10 168/176/9
f 185/142/15 128/141/15 129/128/12 186/127/12
f 187/154/15 130/153/15 136/158/12 193/157/12
f 194/133/15 137/136/15 143/177/12 200/178/12
f 145/168/11 206/167/11 200/178/12 143/177/12
f 202/179/13 203/180/14 148/181/14 149/182/13
f 144/183/15 201/184/15 202/179/13 149/182/13
f 156/185/13 209/186/13 210/187/14 155/188/14
f 152/189/11 213/190/11 207/191/12 150/192/12
f 204/193/9 205/166/10 146/165/10 147/194/9
f 148/181/14 203/180/14 204/193/9 147/194/9
f 155/188/14 210/187/14 211/195/9 154/196/9
f 208/197/15 209/186/13 156/185/13 151/198/15
f 166/199/11 227/200/11 221/201/12 164/202/12
f 219/203/11 214/204/12 157/205/12 158/206/11
f 211/195/9 212/207/10 153/208/10 154/196/9
f 153/208/10 212/207/10 213/190/11 152/189/11
f 215/209/13 216/210/14 161/211/14 162/212/13
f 220/213/15 215/209/13 162/212/13 163/214/15
f 165/215/15 222/216/15 223/217/13 170/218/13
f 159/219/10 218/220/10 219/203/11 158/206/11
f 217/221/9 218/220/10 159/219/10 160/222/9
f 161/211/14 216/210/14 217/221/9 160/222/9
f 223/217/13 224/223/14 169/224/14 170/218/13
f 175/130/14 176/115/9 118/118/9 119/131/14
f 201/184/15 144/183/15 150/192/12 207/191/12
f 222/216/15 165/215/15 171/225/9 228/226/9
f 226/174/10 227/200/11 166/199/11 167/175/10
f 169/224/14 224/223/14 225/173/9 168/176/9
f 208/197/15 151/198/15 157/205/12 214/204/12
f 220/213/15 163/214/15 164/202/12 221/201/12
f 121/170/15 173/169/15 174/129/13 120/132/13
f 116/120/11 178/119/11 172/227/16 115/228/16
