# Blender v2.80 (sub 75) OBJ File: ''
# www.blender.org
mtllib untitled.mtl
o Leaf_Cube.006
v -0.000001 0.011078 0.000108
v -0.000681 0.011089 0.080578
v -0.098209 0.001617 0.079755
v -0.125979 0.001613 -0.000955
v 0.097811 0.001550 -0.079934
v 0.097817 0.027062 -0.079937
v 0.125977 0.027066 0.001169
v 0.125971 0.001554 0.001173
v 0.000001 0.018731 0.000107
v -0.000680 0.018742 0.080577
v 0.096847 0.027084 0.081400
v -0.096452 0.001595 -0.081575
v 0.000681 0.011067 -0.080756
v -0.098203 0.027129 0.079752
v -0.125973 0.027125 -0.000959
v -0.096446 0.027107 -0.081579
v 0.096841 0.001572 0.081403
v -0.001504 0.018755 0.178101
v -0.001506 0.011102 0.178102
v 0.001500 0.003173 -0.177886
v 0.001506 0.027072 -0.177889
v 0.000683 0.018720 -0.080757
vt 0.284390 0.920812
vt 0.285271 0.921601
vt 0.284203 0.922559
vt 0.283011 0.922048
vt 0.304110 0.920909
vt 0.307379 0.920909
vt 0.307379 0.922080
vt 0.304110 0.922080
vt 0.276597 0.920812
vt 0.277478 0.920022
vt 0.278545 0.920979
vt 0.277976 0.922048
vt 0.282442 0.920972
vt 0.283505 0.920018
vt 0.284568 0.919065
vt 0.285769 0.919576
vt 0.300842 0.919067
vt 0.300842 0.920227
vt 0.297574 0.920227
vt 0.297574 0.919067
vt 0.321524 0.913551
vt 0.321524 0.916480
vt 0.320505 0.916468
vt 0.320505 0.913539
vt 0.275218 0.919576
vt 0.276410 0.919065
vt 0.286338 0.920644
vt 0.278545 0.919065
vt 0.286338 0.922558
vt 0.304110 0.919067
vt 0.307379 0.919067
vt 0.300842 0.922085
vt 0.297574 0.922085
vt 0.326182 0.892185
vt 0.328240 0.892184
vt 0.328240 0.895114
vt 0.326182 0.895114
vt 0.282442 0.919065
vt 0.318447 0.916460
vt 0.318447 0.913531
vt 0.275712 0.921605
vt 0.276775 0.922559
vt 0.274649 0.922559
vt 0.274649 0.920652
vt 0.329237 0.892183
vt 0.329237 0.895113
vn 0.0845 -0.9963 -0.0141
vn 0.9447 -0.0003 -0.3280
vn -0.0743 0.9971 -0.0140
vn 0.0844 -0.9963 0.0160
vn -0.0851 -0.9963 0.0145
vn -0.9456 0.0003 0.3254
vn -0.9390 0.0002 -0.3439
vn 0.0750 0.9971 -0.0127
vn -0.0847 -0.9963 -0.0155
vn 0.0857 0.9963 0.0006
vn 0.0967 -0.9953 0.0010
vn 0.7131 -0.0003 -0.7011
vn -0.7131 0.0003 0.7011
vn 0.7011 -0.0001 0.7131
vn 0.0960 -0.9920 0.0814
vn -0.0971 -0.9953 -0.0007
vn -0.7011 0.0001 -0.7131
vn -0.0860 0.9927 0.0846
vn -0.0852 0.9964 -0.0009
vn -0.0746 0.9971 0.0126
vn -0.0979 -0.9920 0.0798
vn 0.0749 0.9971 0.0138
vn 0.0850 0.9927 0.0861
vn 0.9400 -0.0002 0.3413
usemtl Atlas.004
s 1
f 1/1/1 2/2/1 3/3/1 4/4/1
f 5/5/2 6/6/2 7/7/2 8/8/2
f 9/9/3 10/10/3 11/11/3 7/12/3
f 12/13/4 13/14/4 1/1/4 4/4/4
f 13/14/5 5/15/5 8/16/5 1/1/5
f 4/17/6 3/18/6 14/19/6 15/20/6
f 4/21/7 15/22/7 16/23/7 12/24/7
f 15/25/8 14/26/8 10/10/8 9/9/8
f 8/16/9 17/27/9 2/2/9 1/1/9
f 10/10/10 14/26/10 18/28/10
f 3/3/11 2/2/11 19/29/11
f 20/30/12 21/31/12 6/6/12 5/5/12
f 14/19/13 3/18/13 19/32/13 18/33/13
f 19/34/14 17/35/14 11/36/14 18/37/14
f 20/38/15 13/14/15 12/13/15
f 2/2/16 17/27/16 19/29/16
f 12/24/17 16/23/17 21/39/17 20/40/17
f 22/41/18 6/42/18 21/43/18
f 11/11/19 10/10/19 18/28/19
f 7/12/20 6/42/20 22/41/20 9/9/20
f 20/38/21 5/15/21 13/14/21
f 22/41/22 16/44/22 15/25/22 9/9/22
f 21/43/23 16/44/23 22/41/23
f 11/36/24 17/35/24 8/45/24 7/46/24
